<?xml version="1.0" encoding="UTF-8"?>
<svg width="772px" height="332px" viewBox="0 0 772 332" version="1.1" xmlns="http://www.w3.org/2000/svg" xmlns:xlink="http://www.w3.org/1999/xlink">
    <!-- Generator: Sketch 49 (51002) - http://www.bohemiancoding.com/sketch -->
    <title>Artboard</title>
    <desc>Created with Sketch.</desc>
    <defs></defs>
    <g id="Artboard" stroke="none" stroke-width="1" fill="none" fill-rule="evenodd">
        <g id="Logo_2" fill-rule="nonzero">
            <g id="#892e37ff" fill="#892E37">
                <path d="M68.77,6.69 C93.86,-1.9 122.25,-1.36 146.53,9.55 C149.19,10.91 151.86,12.24 154.54,13.55 C172.57,23.23 187.3,38.63 196.56,56.86 C196.52,57.2 196.45,57.88 196.41,58.22 L197.66,58.51 C197.57,58.95 197.4,59.83 197.31,60.27 L198.25,60.43 C198.75,62.27 199.3,64.09 199.8,65.93 C190.87,65.98 181.94,65.98 173.01,65.91 C162.78,47.72 145.33,33.53 125.08,28.14 C110.44,23.93 94.58,24.28 80.13,29.08 C79.14,29.42 78.15,29.76 77.16,30.1 C74.95,30.93 72.77,31.84 70.56,32.67 C70.57,32.78 70.59,33.01 70.6,33.12 C68.92,33.6 67.35,34.36 66,35.5 C65.71,35.45 65.11,35.34 64.82,35.29 L64.65,36.15 C63.45,36.79 62.27,37.45 61.09,38.12 C58.53,40.1 55.9,42 53.22,43.83 L53.66,44 C49.91,46.63 46.67,49.98 44,53.68 L43.85,53.22 C41.58,56.8 38.77,60 36.58,63.62 C35.46,65.56 34.34,67.49 33.29,69.47 C31.7,72.64 30.31,75.91 29.27,79.31 C22.69,97.39 23.66,117.92 31.35,135.5 C39.54,154.14 54.83,169.59 73.58,177.63 C93.49,186.46 117.4,186.27 136.91,176.48 C137.27,176.5 137.97,176.53 138.33,176.55 L138.5,175.19 C138.96,175.31 139.86,175.56 140.31,175.68 L140.36,174.8 C143.66,173.26 146.64,171.18 149.64,169.14 C155.73,164.69 161.19,159.35 165.99,153.55 L166.22,153.54 C167.77,151.26 169.32,148.98 171.02,146.81 C171.34,145.76 171.65,144.72 171.95,143.68 C181.34,143.3 190.74,143.38 200.13,143.51 C199.7,144.87 199.28,146.25 198.82,147.6 C197.29,150.57 195.77,153.53 194.32,156.54 C193.26,158.24 192.19,159.93 191.15,161.64 C190.47,162.63 189.8,163.62 189.15,164.63 C187.41,166.95 185.71,169.31 184.03,171.67 L183.01,170.99 L183.83,172.72 L182.9,172.37 C180.02,176.4 176.36,179.82 172.52,182.92 L172.48,183.05 C169.48,185.39 166.56,187.84 163.49,190.08 C162.48,190.71 161.5,191.38 160.52,192.05 C158.51,193.21 156.53,194.41 154.55,195.6 C147.16,199.66 139.28,202.71 131.22,205.12 C120.04,208.03 108.48,208.89 96.97,208.3 C73.68,206.8 50.98,197.04 33.94,181.09 C16.06,164.81 4.27,142.06 1.27,118.07 C-0.46,103.28 0.68,88.16 4.9,73.86 C10.33,57.68 18.98,42.27 31.51,30.52 C35.21,26.63 39.18,22.95 43.78,20.13 L43.36,19.89 C44.86,18.96 46.33,18.01 47.82,17.07 C49.11,16.26 50.4,15.45 51.7,14.65 C54.99,13.01 58.26,11.31 61.53,9.65 C63.97,8.71 66.39,7.73 68.77,6.69 Z" id="Shape"></path>
            </g>
            <g id="#939598ff" transform="translate(85.000000, 57.000000)" fill="#939598">
                <path d="M585.63,0.69 C592.02,0.69 598.41,0.69 604.81,0.69 C604.81,5.15 604.81,9.6 604.81,14.06 C598.41,14.06 592.02,14.06 585.62,14.06 C585.62,9.6 585.62,5.15 585.63,0.69 Z" id="Shape"></path>
                <path d="M535.56,15.03 C541.87,12.64 548.18,10.25 554.5,7.86 C554.5,12.76 554.5,17.66 554.5,22.56 C558.14,22.56 561.79,22.56 565.44,22.56 C565.43,26.56 565.43,30.56 565.44,34.56 C561.79,34.56 558.14,34.56 554.5,34.57 C554.53,42.01 554.45,49.46 554.51,56.91 C554.57,58.75 554.9,61.28 556.99,61.88 C559.77,62.29 562.58,61.95 565.38,61.83 C565.37,65.58 565.37,69.33 565.38,73.08 C557.86,74.19 549.9,74.86 542.57,72.49 C537.77,70.92 535.48,65.71 535.53,60.98 C535.54,52.17 535.58,43.37 535.56,34.56 C532.31,34.56 529.06,34.56 525.81,34.56 C525.81,30.56 525.81,26.56 525.81,22.56 C529.06,22.56 532.31,22.56 535.56,22.56 C535.56,20.05 535.56,17.54 535.56,15.03 Z" id="Shape"></path>
                <path d="M200.55,30.27 C207.41,19.58 225.11,17.59 233.27,27.77 C237.27,32.57 237.07,39.12 236.95,45 C236.93,54.19 236.95,63.38 236.94,72.56 C230.62,72.56 224.31,72.56 218,72.57 C217.98,63.05 218.03,53.54 217.99,44.03 C217.86,40.43 217.55,35.91 214.09,33.85 C209.46,31.37 203.04,34.61 202.81,40.01 C202.37,50.84 202.76,61.71 202.63,72.56 C196.31,72.56 190,72.57 183.69,72.56 C183.65,62.69 183.76,52.82 183.64,42.95 C183.49,39.41 182.71,34.83 178.92,33.46 C174.18,31.7 168.56,35.17 168.44,40.33 C168.12,51.06 168.41,61.82 168.31,72.56 C162,72.57 155.69,72.56 149.38,72.56 C149.15,55.9 149.91,39.2 148.8,22.56 C155.04,22.56 161.29,22.56 167.53,22.56 C167.63,25.34 167.74,28.11 167.78,30.89 C173.82,18.8 194.5,17.7 200.55,30.27 Z" id="Shape"></path>
                <path d="M277.26,29.66 C283.83,18.72 301.27,18.23 309.07,27.98 C314.81,35.16 315.84,45.04 314.38,53.85 C313.16,61.3 308.95,68.74 301.85,71.93 C296.29,74.37 289.47,75.07 283.97,72.1 C281.36,70.77 279.29,68.66 277.26,66.6 C277.37,74.94 277.28,83.28 277.31,91.62 C270.98,91.63 264.64,91.62 258.31,91.63 C258.31,68.6 258.31,45.58 258.32,22.56 C264.65,22.56 270.99,22.56 277.32,22.56 C277.31,24.93 277.3,27.29 277.26,29.66 Z M283.41,32.63 C278.99,34.46 277.84,39.73 277.45,44 C277.17,49.34 277.08,55.24 280.12,59.88 C282.79,63.91 289.43,64.12 292.38,60.31 C295.08,56.84 295.39,52.2 295.53,47.96 C295.48,43.64 295.23,38.98 292.73,35.28 C290.76,32.3 286.65,31.38 283.41,32.63 Z" id="Shape"></path>
                <path d="M341.53,25.53 C349.05,20.98 358.35,20.61 366.88,21.49 C374,22.45 382.43,26.42 383.41,34.4 C384.08,47.11 382.6,59.94 384.68,72.56 C378.57,72.55 372.47,72.59 366.36,72.54 C366.23,70.31 366.13,68.07 366.09,65.85 C360.73,74.48 348.71,76.04 340.03,71.98 C330.01,67.11 329.43,50.68 338.93,44.95 C346.94,39.94 356.79,40.28 365.88,40.23 C365.74,37.59 366.12,34.74 364.9,32.29 C363.26,29.63 359.4,29.37 356.79,30.56 C354.16,31.87 353.71,35 353.1,37.57 C347.19,37.55 341.28,37.59 335.37,37.54 C335.56,32.88 337.32,28.01 341.53,25.53 Z M353.26,51.29 C350.16,53.34 349.71,58.07 352.18,60.79 C355.15,64.33 361.45,63.52 363.78,59.66 C365.76,56.39 365.62,52.4 365.9,48.72 C361.63,48.84 356.79,48.36 353.26,51.29 Z" id="Shape"></path>
                <path d="M466.45,25.44 C474.01,20.96 483.32,20.59 491.86,21.52 C498.81,22.52 506.94,26.33 508.15,34.02 C509.01,46.85 507.34,59.81 509.48,72.56 C503.37,72.55 497.25,72.59 491.14,72.54 C491.02,70.27 490.95,68.01 490.95,65.75 C485.5,74.57 473.09,76.18 464.34,71.72 C454.67,66.55 454.39,50.44 463.84,44.88 C471.84,39.94 481.64,40.28 490.69,40.23 C490.53,37.61 490.9,34.81 489.73,32.37 C488.13,29.61 484.14,29.34 481.5,30.61 C478.95,31.96 478.47,35.02 477.9,37.56 C471.98,37.55 466.06,37.59 460.14,37.53 C460.31,32.81 462.16,27.89 466.45,25.44 Z M478.19,51.18 C475.15,53.09 474.45,57.56 476.63,60.38 C479.45,64.37 486.25,63.68 488.63,59.57 C490.56,56.31 490.43,52.37 490.71,48.72 C486.48,48.85 481.72,48.36 478.19,51.18 Z" id="Shape"></path>
                <path d="M15.5,24.39 C24.15,20.29 34.49,20.97 43.11,24.78 C46.32,27.05 49.08,30.03 51.13,33.39 C51.83,35.39 52.54,37.39 53.36,39.36 C47.18,39.23 41,39.31 34.82,39.3 C34.79,37.6 34.76,35.91 34.76,34.21 C31.98,31.68 28.03,30.65 24.39,31.64 C20.34,33.88 20.61,38.82 19.41,42.69 C19.24,45.89 19.24,49.1 19.41,52.31 C20.25,54.71 20.37,57.27 20.72,59.77 C21.83,61.01 23,62.18 24.22,63.31 C25.99,63.56 27.76,63.71 29.54,63.85 C31.4,62.63 33.1,61.19 34.73,59.68 C34.75,57.68 34.81,55.69 34.87,53.7 C41.1,53.7 47.33,53.72 53.56,53.69 C53.26,54.43 52.66,55.91 52.35,56.65 C52.3,57.05 52.19,57.86 52.14,58.26 C51.7,59.3 51.32,60.37 51.01,61.46 C49.43,63.79 48.01,66.36 45.41,67.7 C43.8,68.74 42.15,69.69 40.47,70.62 C33.95,73.72 26.33,74.02 19.35,72.59 C18.36,72.25 17.38,71.91 16.4,71.57 C14.29,70.99 12.34,69.99 10.58,68.7 C8.85,67.59 7.33,66.2 5.99,64.65 C5.39,63.53 4.7,62.47 4,61.42 C2.88,57.91 1.52,54.42 1.49,50.68 C0.74,48.63 0.83,46.42 1.44,44.35 C1.75,41.66 2.48,39.05 3.37,36.51 C4.3,34.84 5.27,33.19 6.31,31.59 C7.31,29.77 8.77,28.3 10.59,27.3 C12.19,26.27 13.83,25.3 15.5,24.39 Z" id="Shape"></path>
                <path d="M85.51,24.79 C95.07,20.68 106.12,20.57 115.62,24.94 C119.67,27.87 123.72,31.07 126.22,35.5 C127.26,38.38 128.26,41.29 128.56,44.36 C129.26,46.41 129.26,48.61 128.56,50.66 C128.27,53.71 127.26,56.62 126.22,59.49 C123.52,63.79 119.81,67.54 115.48,70.22 C106.08,74.31 94.85,74.81 85.55,70.16 C78.54,66.91 73.49,60.31 72.4,52.62 C71.47,49.29 71.49,45.72 72.4,42.39 C72.88,40.43 73.45,38.51 73.94,36.56 C74.69,35.51 75.43,34.46 76.11,33.37 C76.41,32.95 77.02,32.12 77.33,31.71 C79.16,28.52 82.68,26.95 85.51,24.79 Z M92.18,37.44 L91.74,37.16 C90.07,43.91 90.02,51.04 91.73,57.8 C92.05,57.79 92.68,57.78 93,57.78 L91.95,59.49 L92.99,59.51 C94.04,61.09 95.33,62.52 97.31,62.82 L97.27,63.48 C99.47,63.43 101.67,63.42 103.87,63.44 L103.54,61.98 C104.09,62.23 105.19,62.74 105.74,62.99 L105.05,61.26 L106.65,61.93 L106.21,60.57 L107.66,60.7 L107.16,59.05 L108.24,59.79 C110.04,54.26 110.95,48.54 110.35,42.72 C109.45,40.27 108.74,37.74 108.28,35.18 L107.04,36.11 L107.62,34.91 C106.54,34.44 105.69,33.71 105.08,32.71 C100.54,30.27 93.35,31.86 92.18,37.44 Z" id="Shape"></path>
                <path d="M430.18,24.18 C433.54,21.49 438,21.2 442.12,20.97 C442.13,26.35 442.12,31.72 442.12,37.09 C437.88,37.09 433.12,36.77 429.59,39.58 C426.17,42.24 425.28,46.84 425.26,50.95 C425.21,58.15 425.27,65.36 425.25,72.56 C418.91,72.57 412.58,72.56 406.25,72.56 C405.99,55.9 406.82,39.2 405.7,22.56 C412.12,22.57 418.53,22.56 424.95,22.57 C425.05,25.73 425.16,28.89 425.13,32.06 C426.3,29.16 427.56,26.08 430.18,24.18 Z" id="Shape"></path>
                <path d="M585.75,22.56 C592.08,22.56 598.41,22.57 604.75,22.56 C604.76,39.23 604.75,55.9 604.75,72.56 C598.41,72.56 592.08,72.57 585.75,72.56 C585.75,55.89 585.75,39.23 585.75,22.56 Z" id="Shape"></path>
                <path d="M641.95,72.57 C635.6,55.9 629.24,39.24 622.91,22.56 C629.63,22.56 636.36,22.56 643.09,22.56 C646.39,34.32 649.69,46.08 653,57.84 C656.54,46.08 660.08,34.32 663.63,22.56 C669.51,22.56 675.4,22.56 681.29,22.57 C674.99,39.23 668.67,55.9 662.37,72.56 C655.56,72.57 648.75,72.56 641.95,72.57 Z" id="Shape"></path>
            </g>
            <g id="#d8dcdbfb" transform="translate(102.000000, 249.000000)" fill="#D8DCDB">
                <path d="M226.87,4.25 C226.87,2.91 226.87,1.57 226.88,0.23 C227.52,0.23 228.8,0.24 229.44,0.24 C229.44,1.57 229.44,2.91 229.44,4.26 C228.58,4.25 227.73,4.25 226.87,4.25 Z" id="Shape"></path>
                <path d="M233,0.22 C233.65,0.23 234.93,0.24 235.57,0.25 C235.57,1.58 235.57,2.92 235.57,4.26 C234.71,4.25 233.85,4.25 233,4.25 C232.99,2.91 232.99,1.56 233,0.22 Z" id="Shape"></path>
                <path d="M47.13,6.74 C52.54,6.75 57.96,6.74 63.38,6.75 C63.38,7.3 63.38,8.4 63.37,8.95 C61.08,8.95 58.8,8.95 56.51,8.96 C56.51,17.62 56.52,26.29 56.5,34.95 C55.86,34.95 54.58,34.96 53.94,34.96 C53.94,26.29 53.94,17.63 53.94,8.96 C51.65,8.95 49.37,8.95 47.09,8.93 C47.1,8.39 47.12,7.29 47.13,6.74 Z" id="Shape"></path>
                <path d="M69.2,8.2 C71.81,5.86 75.9,5.72 79.05,6.96 C81.77,8.13 82.08,11.34 82.48,13.88 C81.84,13.91 80.56,13.96 79.92,13.99 C79.53,12.48 79.41,10.83 78.49,9.53 C76.51,7.95 73.45,8.04 71.37,9.35 C69.63,11.07 69.72,14.12 71.01,16.07 C74.05,19.11 78.5,20.4 81.28,23.74 C83.45,27.4 82.64,33.86 77.92,35.07 C75.04,35.78 71.56,35.72 69.21,33.7 C67.32,31.99 67.31,29.27 66.94,26.95 C67.61,26.94 68.94,26.94 69.61,26.93 C69.5,30.16 71.18,33.88 75.03,33.28 C79.39,33.81 81.14,28.15 78.85,25.13 C75.87,21.67 70.82,20.59 68.26,16.69 C67.05,14.05 67.19,10.43 69.2,8.2 Z" id="Shape"></path>
                <path d="M88.88,10.8 C90.4,6.12 96.68,5.06 100.57,7.27 C103.04,8.74 103.08,11.87 103.53,14.38 C102.89,14.4 101.63,14.44 101,14.46 C100.48,12.64 100.54,10.31 98.83,9.1 C96.11,7.42 91.77,8.75 91.12,12.09 C90.05,17.64 90.15,23.45 90.97,29.02 C91.32,32.56 95.7,34.43 98.64,32.63 C100.48,31.29 100.49,28.8 101,26.8 C101.68,26.81 103.04,26.84 103.72,26.85 C103.2,29.53 102.89,32.75 100.36,34.38 C97.57,36.07 93.68,35.81 91.03,33.96 C88.12,31.55 88.03,27.43 87.88,23.98 C87.93,19.59 87.49,15.04 88.88,10.8 Z" id="Shape"></path>
                <path d="M109.04,6.75 C109.9,6.75 110.77,6.74 111.63,6.74 C111.64,10.95 111.63,15.15 111.64,19.36 C115.3,19.36 118.96,19.36 122.62,19.36 C122.62,15.15 122.62,10.95 122.62,6.74 C123.25,6.75 124.5,6.75 125.12,6.75 C125.13,16.15 125.13,25.55 125.12,34.96 C124.5,34.96 123.25,34.95 122.62,34.95 C122.61,30.49 122.62,26.03 122.62,21.57 C118.96,21.57 115.3,21.57 111.64,21.58 C111.63,26.03 111.64,30.49 111.63,34.94 C110.99,34.95 109.7,34.95 109.06,34.96 C109.03,25.56 109.05,16.15 109.04,6.75 Z" id="Shape"></path>
                <path d="M277.61,9.56 C280.05,5.59 285.79,5.48 289.59,7.34 C292.03,8.58 292.26,11.53 292.68,13.92 C292.07,13.95 290.83,14 290.22,14.03 C289.66,12.03 289.3,9.32 286.88,8.76 C283.63,7.48 279.27,9.16 278.97,12.96 C278.3,18.5 278.08,24.28 279.24,29.77 C280.53,34.34 286.1,33.39 289.64,32.67 C289.7,29.24 289.68,25.81 289.68,22.38 C287.78,22.38 285.89,22.38 284,22.38 L284,20.17 C286.75,20.17 289.5,20.17 292.25,20.17 C292.25,24.92 292.26,29.66 292.25,34.4 C288,35.21 282.96,36.64 279.13,33.88 C275.73,30.96 275.98,26.04 275.92,21.97 C276.03,17.83 275.45,13.3 277.61,9.56 Z" id="Shape"></path>
                <path d="M320.41,6.62 C323.89,5.71 328.58,6.1 330.48,9.62 C332.56,13.73 331.95,18.55 332.07,23.01 C331.92,26.96 332.02,32.01 328.23,34.4 C324.21,36.51 317.68,35.79 316.08,30.91 C314.57,26.07 315.06,20.88 315.15,15.88 C315.26,12.25 316.39,7.68 320.41,6.62 Z M320.37,9.15 C317.81,10.86 317.86,14.31 317.66,17.04 C317.66,21.33 317.27,25.73 318.41,29.91 C319.79,34.91 328.49,34.28 328.96,28.99 C329.74,23.41 329.87,17.61 328.79,12.07 C328.01,8.41 323.28,7.5 320.37,9.15 Z" id="Shape"></path>
                <path d="M398.98,10.08 C401.06,5.77 406.91,5.44 410.84,7.13 C413.67,8.28 414.02,11.61 414.31,14.25 C410.31,15.04 412.01,9.64 408.86,8.87 C406.23,7.86 402.4,8.26 401.2,11.17 C399.76,14.92 400.2,19.06 400.12,23 C400.31,25.98 400.03,29.45 402.11,31.88 C404.59,34.22 408.28,33.04 411.28,32.67 C411.31,29.24 411.3,25.81 411.3,22.38 C409.39,22.38 407.5,22.38 405.61,22.38 C405.62,21.83 405.62,20.72 405.63,20.17 C408.38,20.17 411.13,20.17 413.89,20.18 C413.88,24.93 413.93,29.69 413.84,34.45 C409.64,35.19 404.74,36.59 400.92,33.98 C397.63,31.38 397.67,26.77 397.55,22.97 C397.65,18.67 397.1,14.09 398.98,10.08 Z" id="Shape"></path>
                <path d="M442.15,7.16 C444.84,5.92 448.19,5.82 450.87,7.13 C453.3,8.41 453.53,11.38 454.05,13.76 C453.4,13.83 452.09,13.98 451.44,14.05 C451.33,11.02 449.55,7.68 445.99,8.4 C441.73,7.92 440.29,13.55 442.71,16.27 C445.81,19.26 450.35,20.52 452.97,24.03 C454.78,27.6 454.14,33.43 449.87,34.93 C446.99,35.8 443.51,35.77 441,33.95 C438.83,32.3 438.82,29.38 438.47,26.95 C439.12,26.94 440.43,26.94 441.09,26.94 C441.5,28.88 441.3,31.49 443.33,32.62 C445.59,33.63 448.94,33.73 450.53,31.49 C451.77,29.3 451.6,26.14 449.69,24.37 C446.59,21.51 442.05,20.28 439.71,16.6 C438.31,13.5 438.79,8.82 442.15,7.16 Z" id="Shape"></path>
                <path d="M460.76,9.94 C462.69,5.98 468.2,5.33 471.83,7.12 C474.45,8.53 474.61,11.75 475.03,14.34 C474.4,14.39 473.13,14.48 472.5,14.52 C472.01,12.76 472.05,10.67 470.65,9.33 C468.32,7.58 464.26,8.25 463.03,11.03 C461.7,14.15 461.99,17.65 461.89,20.97 C462.01,24.26 461.68,27.77 463.12,30.84 C464.28,33.21 467.49,33.83 469.78,32.85 C471.94,31.65 471.98,28.92 472.47,26.8 C473.16,26.8 474.53,26.82 475.22,26.83 C474.74,29.62 474.31,32.99 471.6,34.56 C467.98,36.44 462.37,35.58 460.64,31.5 C459.22,28.18 459.4,24.48 459.33,20.95 C459.41,17.27 459.17,13.37 460.76,9.94 Z" id="Shape"></path>
                <path d="M494.11,6.74 C494.74,6.75 496.01,6.75 496.64,6.75 C496.63,16.15 496.64,25.54 496.63,34.94 C496.01,34.95 494.75,34.96 494.12,34.96 C494.09,30.5 494.11,26.03 494.1,21.57 C490.44,21.57 486.78,21.57 483.13,21.57 C483.12,26.03 483.12,30.49 483.12,34.96 C482.48,34.96 481.2,34.95 480.56,34.95 C480.55,25.55 480.56,16.15 480.56,6.75 C481.2,6.75 482.48,6.75 483.13,6.75 C483.12,10.95 483.12,15.16 483.13,19.36 C486.78,19.36 490.44,19.36 494.1,19.36 C494.11,15.15 494.1,10.95 494.11,6.74 Z" id="Shape"></path>
                <path d="M513.91,10.11 C515.74,6.04 521.28,5.33 524.96,7.06 C527.66,8.44 527.88,11.76 528.25,14.41 C527.62,14.42 526.36,14.46 525.73,14.48 C525.2,12.7 525.29,10.47 523.71,9.21 C520.86,7.25 516.21,8.86 515.75,12.48 C514.83,18.02 514.79,23.82 515.79,29.35 C516.3,32.8 520.8,34.43 523.55,32.49 C525.97,30.8 524.23,25.7 528.44,26.6 C528.01,29.52 527.59,33.1 524.68,34.65 C521.18,36.32 515.99,35.61 514.08,31.91 C512.53,28.84 512.69,25.29 512.56,21.95 C512.65,18 512.32,13.82 513.91,10.11 Z" id="Shape"></path>
                <path d="M547.3,6.75 C548.16,6.75 549.02,6.74 549.89,6.75 C549.88,16.15 549.91,25.55 549.88,34.96 C549.24,34.95 547.95,34.95 547.3,34.94 C547.29,30.49 547.3,26.03 547.3,21.58 C543.63,21.57 539.97,21.57 536.32,21.57 C536.31,26.03 536.32,30.49 536.31,34.95 C535.69,34.95 534.44,34.96 533.81,34.96 C533.81,25.55 533.81,16.15 533.81,6.75 C534.44,6.75 535.69,6.75 536.32,6.75 C536.32,10.95 536.31,15.16 536.32,19.36 C539.97,19.36 543.63,19.36 547.3,19.36 C547.3,15.15 547.3,10.95 547.3,6.75 Z" id="Shape"></path>
                <path d="M575.17,6.75 C579.42,6.74 583.68,6.75 587.93,6.74 C587.94,7.29 587.97,8.39 587.98,8.93 C584.55,8.96 581.12,8.95 577.7,8.96 C577.7,12.42 577.69,15.89 577.7,19.36 C580.97,19.36 584.23,19.36 587.51,19.37 C587.51,19.92 587.51,21.02 587.51,21.57 C584.23,21.57 580.97,21.57 577.7,21.58 C577.69,25.3 577.69,29.02 577.7,32.75 C581.21,32.74 584.73,32.74 588.25,32.75 C588.24,33.48 588.24,34.22 588.25,34.96 C583.89,34.95 579.53,34.96 575.18,34.95 C575.16,25.55 575.17,16.15 575.17,6.75 Z" id="Shape"></path>
                <path d="M603.13,6.7 C603.76,6.72 605.01,6.76 605.64,6.78 C605.68,13.16 605.54,19.54 605.7,25.92 C605.78,28.31 606.03,31.28 608.36,32.62 C610.64,33.73 613.92,33.62 615.6,31.49 C616.97,29.63 616.92,27.18 617.02,24.99 C617.08,18.91 617.02,12.83 617.04,6.75 C617.68,6.75 618.94,6.75 619.57,6.74 C619.54,13.5 619.62,20.25 619.55,27.01 C619.52,29.92 618.53,33.29 615.67,34.61 C612.77,35.85 609.21,35.83 606.43,34.29 C604.02,32.79 603.16,29.79 603.13,27.11 C603.07,20.3 603.11,13.5 603.13,6.7 Z" id="Shape"></path>
                <path d="M1.56,6.75 C6.48,6.75 11.41,6.73 16.34,6.76 C16.3,10.39 14.05,13.32 12.44,16.39 C9.44,21.84 6.46,27.29 3.48,32.75 C7.74,32.74 11.99,32.74 16.25,32.75 C16.25,33.3 16.25,34.4 16.25,34.96 C11.04,34.94 5.83,34.99 0.62,34.92 C0.56,31.56 2.62,28.84 4.13,26.02 C7.29,20.34 10.42,14.65 13.57,8.96 C9.57,8.95 5.56,8.96 1.56,8.96 C1.56,8.4 1.56,7.3 1.56,6.75 Z" id="Shape"></path>
                <path d="M21.24,6.75 C25.49,6.74 29.74,6.74 34,6.75 C34,7.3 34,8.4 34,8.96 C30.59,8.95 27.18,8.95 23.76,8.96 C23.76,12.42 23.76,15.89 23.77,19.36 C27.03,19.36 30.3,19.36 33.57,19.37 C33.57,19.92 33.57,21.02 33.57,21.57 C30.3,21.57 27.03,21.57 23.77,21.57 C23.76,25.3 23.76,29.02 23.77,32.75 C27.28,32.74 30.8,32.74 34.32,32.75 C34.32,33.3 34.31,34.4 34.31,34.95 C29.95,34.95 25.6,34.96 21.24,34.95 C21.23,25.55 21.24,16.15 21.24,6.75 Z" id="Shape"></path>
                <path d="M39.81,6.75 C40.45,6.75 41.74,6.75 42.38,6.75 C42.38,16.15 42.39,25.55 42.38,34.95 C41.74,34.95 40.45,34.96 39.81,34.96 C39.81,25.55 39.81,16.15 39.81,6.75 Z" id="Shape"></path>
                <path d="M131.68,6.75 C135.43,6.84 139.23,6.43 142.93,7.15 C146.78,8.11 146.46,12.96 146.11,16.04 C146.05,18.24 144.1,19.42 142.37,20.31 C143.75,20.8 145.48,21.31 145.65,23.05 C146.31,27.08 145.94,31.19 146.3,35.26 C145.71,35.12 144.53,34.85 143.94,34.71 C143.14,30.93 144.28,26.84 142.8,23.22 C140.96,20.37 137.08,21.58 134.26,21.29 C134.24,25.84 134.26,30.4 134.25,34.96 C133.61,34.96 132.33,34.95 131.69,34.95 C131.68,25.55 131.68,16.15 131.68,6.75 Z M134.25,8.95 C134.25,12.34 134.25,15.74 134.26,19.14 C137.23,18.81 141.98,20.22 143.31,16.53 C143.87,14.2 144.33,10.76 141.91,9.32 C139.41,8.67 136.79,9.03 134.25,8.95 Z" id="Shape"></path>
                <path d="M152.75,6.75 C153.39,6.75 154.67,6.75 155.32,6.75 C155.32,16.15 155.32,25.55 155.31,34.95 C154.67,34.95 153.39,34.96 152.75,34.96 C152.74,25.55 152.75,16.15 152.75,6.75 Z" id="Shape"></path>
                <path d="M162.11,6.75 C166.09,6.74 170.07,6.74 174.06,6.75 C174.06,7.3 174.06,8.4 174.06,8.96 C170.94,8.95 167.82,8.95 164.7,8.96 C164.7,12.42 164.7,15.89 164.7,19.36 C167.61,19.36 170.53,19.36 173.44,19.37 C173.44,19.92 173.44,21.02 173.44,21.57 C170.53,21.57 167.61,21.57 164.7,21.58 C164.69,26.03 164.7,30.49 164.7,34.94 C164.05,34.95 162.76,34.95 162.12,34.96 C162.09,25.55 162.11,16.15 162.11,6.75 Z" id="Shape"></path>
                <path d="M176.3,6.75 C181.72,6.74 187.15,6.74 192.57,6.75 C192.57,7.3 192.57,8.4 192.56,8.95 C190.29,8.95 188.03,8.95 185.76,8.96 C185.76,17.62 185.77,26.28 185.76,34.95 C185.11,34.95 183.83,34.95 183.18,34.95 C183.16,26.29 183.18,17.62 183.17,8.96 C180.88,8.95 178.59,8.95 176.31,8.95 C176.31,8.4 176.3,7.3 176.3,6.75 Z" id="Shape"></path>
                <path d="M206.68,6.75 C210.67,6.74 214.65,6.74 218.64,6.75 C218.63,7.3 218.63,8.4 218.63,8.95 C215.5,8.95 212.38,8.95 209.25,8.96 C209.25,12.42 209.25,15.89 209.26,19.36 C212.17,19.36 215.08,19.36 218,19.36 L218,21.57 C215.08,21.57 212.17,21.57 209.26,21.57 C209.25,26.03 209.26,30.49 209.25,34.96 C208.61,34.96 207.33,34.95 206.69,34.95 C206.68,25.55 206.68,16.15 206.68,6.75 Z" id="Shape"></path>
                <path d="M222.94,6.75 C223.58,6.75 224.87,6.75 225.51,6.75 C225.55,13.16 225.42,19.58 225.56,25.99 C225.64,28.4 225.94,31.39 228.32,32.67 C230.59,33.71 233.81,33.59 235.46,31.5 C236.81,29.63 236.8,27.22 236.88,25.02 C236.89,18.93 236.86,12.84 236.87,6.75 C237.52,6.75 238.8,6.75 239.44,6.75 C239.41,13.49 239.5,20.23 239.42,26.97 C239.41,29.86 238.44,33.2 235.64,34.56 C231.28,36.66 224.34,35.39 223.36,29.93 C222.44,22.26 223.17,14.47 222.94,6.75 Z" id="Shape"></path>
                <path d="M245.81,6.75 C249.71,6.89 253.74,6.3 257.55,7.32 C260.91,8.65 260.49,13.04 260.23,15.97 C260.16,18.19 258.24,19.45 256.43,20.29 C257.8,20.81 259.6,21.3 259.76,23.06 C260.4,26.99 260.03,31.01 260.41,34.97 C259.79,34.97 258.57,34.96 257.96,34.95 C257.52,31.27 258.05,27.47 257.19,23.86 C255.81,20.3 251.33,21.54 248.39,21.29 C248.37,25.84 248.38,30.4 248.38,34.95 C247.74,34.95 246.45,34.96 245.81,34.96 C245.81,25.55 245.81,16.15 245.81,6.75 Z M248.38,8.95 C248.38,12.34 248.38,15.74 248.38,19.13 C251.35,18.82 256.04,20.2 257.41,16.55 C257.99,14.19 258.45,10.6 255.87,9.26 C253.41,8.74 250.87,9 248.38,8.95 Z" id="Shape"></path>
                <path d="M299,6.75 C299.64,6.75 300.93,6.75 301.57,6.75 C301.57,15.41 301.57,24.08 301.58,32.74 C304.67,32.74 307.77,32.74 310.87,32.74 C310.88,33.29 310.91,34.38 310.92,34.93 C306.94,34.97 302.97,34.95 299,34.96 C299,25.55 299,16.15 299,6.75 Z" id="Shape"></path>
                <path d="M338.11,6.75 C342.31,7.1 347.09,5.73 350.86,8.11 C353.8,11.5 353.61,18.14 349.22,20.32 C354.26,22.01 354.19,28.9 351.72,32.66 C348.24,36.36 342.59,34.52 338.11,34.94 C338.1,25.55 338.11,16.15 338.11,6.75 Z M340.7,8.94 C340.7,12.38 340.69,15.82 340.7,19.26 C343.04,19.16 345.47,19.5 347.75,18.8 C350.54,17.17 350.6,13.14 349.45,10.48 C347.43,7.85 343.53,9.35 340.7,8.94 Z M340.71,21.42 C340.69,25.21 340.69,28.99 340.71,32.78 C343.73,32.52 347.67,33.54 349.85,30.81 C351.27,28.17 351.11,24.25 348.69,22.22 C346.24,20.95 343.35,21.6 340.71,21.42 Z" id="Shape"></path>
                <path d="M365.59,6.94 C366.31,6.84 367.75,6.65 368.47,6.56 C371.44,16.1 374.48,25.63 377.36,35.21 C376.69,35.1 375.37,34.88 374.7,34.77 C373.69,32.46 373.13,29.98 372.37,27.58 C368.71,27.57 365.05,27.57 361.4,27.58 C360.03,30.26 360.79,35.57 356.58,35.23 C359.53,25.79 362.33,16.27 365.59,6.94 Z M366.9,9.61 C365.32,14.85 363.75,20.11 362.19,25.36 C365.34,25.36 368.5,25.36 371.67,25.36 C370.08,20.11 368.52,14.85 366.9,9.61 Z" id="Shape"></path>
                <path d="M381.56,6.75 C382.2,6.75 383.48,6.75 384.13,6.75 C384.13,15.41 384.12,24.08 384.13,32.75 C387.2,32.74 390.28,32.74 393.36,32.75 C393.37,33.29 393.39,34.39 393.41,34.94 C389.46,34.96 385.51,34.95 381.56,34.95 C381.55,25.55 381.56,16.15 381.56,6.75 Z" id="Shape"></path>
                <path d="M421,6.75 C425.25,6.74 429.51,6.74 433.76,6.75 C433.76,7.3 433.75,8.4 433.75,8.96 C430.33,8.95 426.92,8.95 423.51,8.96 C423.51,12.42 423.5,15.89 423.51,19.36 C426.78,19.36 430.04,19.36 433.32,19.37 C433.32,19.92 433.32,21.02 433.32,21.57 C430.05,21.57 426.78,21.57 423.51,21.58 C423.5,25.3 423.5,29.02 423.51,32.75 C427.02,32.74 430.54,32.74 434.06,32.75 C434.06,33.3 434.06,34.4 434.06,34.96 C429.71,34.95 425.35,34.95 421,34.96 C421,25.55 421,16.15 421,6.75 Z" id="Shape"></path>
                <path d="M503.62,6.75 C504.26,6.75 505.55,6.75 506.19,6.75 C506.19,16.15 506.19,25.55 506.19,34.96 C505.55,34.96 504.26,34.95 503.62,34.95 C503.61,25.55 503.62,16.15 503.62,6.75 Z" id="Shape"></path>
                <path d="M554.3,6.75 C559.72,6.74 565.15,6.74 570.57,6.75 C570.57,7.3 570.57,8.4 570.56,8.95 C568.29,8.95 566.02,8.95 563.76,8.96 C563.76,17.62 563.77,26.28 563.76,34.95 C563.11,34.95 561.83,34.95 561.18,34.95 C561.16,26.29 561.18,17.62 561.17,8.96 C558.88,8.95 556.59,8.95 554.31,8.95 C554.31,8.4 554.3,7.3 554.3,6.75 Z" id="Shape"></path>
                <path d="M626.3,34.95 C626.29,25.55 626.3,16.15 626.3,6.75 C627.27,6.75 629.21,6.75 630.17,6.75 C633.97,14.94 637.73,23.15 641.55,31.34 C641.56,23.14 641.55,14.94 641.56,6.75 C642.2,6.75 643.48,6.75 644.13,6.75 C644.12,16.15 644.13,25.55 644.12,34.96 C642.84,34.95 641.57,34.95 640.31,34.95 C636.5,26.67 632.72,18.38 628.9,10.11 C628.88,18.39 628.91,26.67 628.88,34.96 C628.24,34.95 626.95,34.95 626.3,34.95 Z" id="Shape"></path>
                <path d="M651.17,6.75 C655.58,7.08 660.64,5.72 664.53,8.38 C667.9,11.58 667.26,16.75 667.5,20.99 C667.31,25.14 667.7,30.22 664.23,33.21 C660.42,35.83 655.5,34.72 651.18,34.95 C651.16,25.55 651.17,16.15 651.17,6.75 Z M653.7,8.92 C653.7,16.87 653.69,24.83 653.71,32.79 C656.82,32.52 660.63,33.4 663.12,31.01 C665,28.45 664.68,25.04 664.92,22.04 C664.86,18.51 665.29,14.72 663.73,11.44 C661.55,8.15 657.04,9.18 653.7,8.92 Z" id="Shape"></path>
                <path d="M16.51,53.43 C17.14,53.43 18.4,53.43 19.03,53.43 C16.43,62.83 13.82,72.23 11.22,81.63 C10.15,81.63 9.09,81.63 8.04,81.64 C5.42,72.17 2.66,62.73 0.19,53.21 C0.86,53.31 2.2,53.51 2.87,53.6 C5.29,61.88 7.3,70.27 9.57,78.59 C11.9,70.21 14.2,61.82 16.51,53.43 Z" id="Shape"></path>
                <path d="M22.24,53.43 C26.49,53.42 30.75,53.43 35,53.43 C35,53.98 35,55.08 35,55.64 C31.61,55.63 28.22,55.63 24.83,55.64 C24.82,59.1 24.83,62.57 24.83,66.04 C28.08,66.04 31.33,66.04 34.58,66.06 C34.58,66.61 34.57,67.71 34.56,68.25 C31.32,68.25 28.07,68.25 24.83,68.25 C24.83,71.98 24.82,75.7 24.83,79.43 C28.33,79.43 31.82,79.42 35.32,79.43 C35.32,79.98 35.32,81.08 35.32,81.63 C30.96,81.64 26.6,81.64 22.24,81.63 C22.23,72.23 22.23,62.83 22.24,53.43 Z" id="Shape"></path>
                <path d="M39.24,53.43 C43.15,53.57 47.19,52.97 51.01,54.04 C54.39,55.43 53.95,59.91 53.64,62.88 C53.51,64.88 51.76,65.96 50.23,66.91 C51.37,67.66 53.07,68.12 53.17,69.76 C53.88,73.68 53.48,77.72 53.83,81.69 C53.21,81.66 51.98,81.61 51.36,81.59 C50.97,77.88 51.44,74.07 50.6,70.44 C49.13,67 44.75,68.24 41.83,67.99 C41.83,72.54 41.83,77.09 41.82,81.63 C41.18,81.63 39.89,81.63 39.24,81.63 C39.23,72.23 39.24,62.83 39.24,53.43 Z M41.83,55.62 C41.82,59.05 41.82,62.48 41.83,65.92 C44.45,65.72 47.33,66.29 49.72,64.95 C51.67,63 51.5,59.76 50.77,57.31 C48.78,54.54 44.73,56.02 41.83,55.62 Z" id="Shape"></path>
                <path d="M59.79,56.77 C61.93,52.4 67.95,52.1 71.88,53.95 C74.46,55.15 74.74,58.2 75.19,60.66 C74.55,60.7 73.29,60.8 72.65,60.84 C72.08,59.09 72.05,56.77 70.18,55.84 C67.49,54.45 63.24,54.82 61.96,57.97 C60.53,61.8 61.08,65.99 60.98,70 C61.13,72.99 60.85,76.6 63.22,78.86 C65.77,80.84 69.2,79.77 72.1,79.35 C72.11,75.92 72.11,72.49 72.11,69.06 C70.21,69.06 68.32,69.05 66.43,69.06 C66.43,68.51 66.43,67.42 66.43,66.88 C69.18,66.87 71.94,66.87 74.7,66.88 C74.7,71.62 74.7,76.36 74.7,81.11 C70.6,81.91 65.9,83.19 62.05,80.92 C58.56,78.51 58.46,73.81 58.36,69.99 C58.46,65.58 57.88,60.89 59.79,56.77 Z" id="Shape"></path>
                <path d="M95.75,53.43 C100.02,53.42 104.29,53.42 108.57,53.43 C108.57,53.98 108.57,55.08 108.57,55.63 C105.15,55.64 101.74,55.63 98.32,55.64 C98.32,59.1 98.32,62.57 98.32,66.04 C101.56,66.04 104.81,66.04 108.06,66.04 C108.06,66.6 108.06,67.7 108.06,68.25 C104.81,68.25 101.56,68.25 98.32,68.25 C98.32,71.98 98.31,75.7 98.32,79.43 C101.82,79.42 105.32,79.42 108.82,79.43 C108.82,79.98 108.83,81.08 108.83,81.63 C104.47,81.64 100.11,81.64 95.75,81.63 C95.75,72.23 95.74,62.83 95.75,53.43 Z" id="Shape"></path>
                <path d="M124.89,53.94 C127.63,52.58 131.23,52.42 133.88,54.1 C136.18,55.64 136.21,58.65 136.63,61.11 C136.01,61.11 134.77,61.13 134.15,61.13 C133.58,59.21 133.62,56.61 131.56,55.57 C128.95,54.33 125.16,55.44 124.35,58.44 C123.22,62.51 123.52,66.81 123.56,71 C123.75,73.53 123.68,76.41 125.4,78.49 C127.2,80.36 130.8,80.7 132.54,78.59 C133.63,77.1 133.7,75.15 134.18,73.44 C134.85,73.48 136.2,73.56 136.87,73.6 C136.3,76.32 135.96,79.66 133.29,81.22 C129.58,83.25 123.74,82.21 122.13,77.92 C120.52,73.47 121.04,68.62 121.01,63.98 C121.15,60.42 121.44,55.95 124.89,53.94 Z" id="Shape"></path>
                <path d="M141,53.42 C141.64,53.42 142.93,53.43 143.57,53.44 C143.57,57.63 143.57,61.84 143.57,66.04 C147.23,66.04 150.89,66.04 154.56,66.04 C154.55,61.83 154.55,57.63 154.56,53.43 C155.2,53.43 156.48,53.43 157.12,53.43 C157.13,62.83 157.12,72.23 157.13,81.64 C156.27,81.63 155.41,81.63 154.56,81.63 C154.55,77.17 154.56,72.71 154.55,68.26 C150.89,68.25 147.23,68.25 143.57,68.26 C143.57,72.71 143.57,77.17 143.57,81.63 C142.93,81.63 141.64,81.64 141,81.64 C141,72.24 141,62.83 141,53.42 Z" id="Shape"></path>
                <path d="M162.75,53.43 C167.02,53.42 171.29,53.42 175.57,53.43 C175.57,53.98 175.57,55.08 175.57,55.63 C172.15,55.64 168.73,55.63 165.32,55.64 C165.32,59.1 165.32,62.57 165.32,66.04 C168.56,66.04 171.81,66.04 175.06,66.04 C175.06,66.6 175.06,67.7 175.06,68.25 C171.81,68.25 168.56,68.25 165.32,68.25 C165.32,71.98 165.31,75.7 165.32,79.43 C168.82,79.42 172.32,79.42 175.82,79.43 C175.82,79.98 175.83,81.08 175.83,81.63 C171.47,81.64 167.11,81.63 162.75,81.63 C162.74,72.23 162.74,62.83 162.75,53.43 Z" id="Shape"></path>
                <path d="M203.81,53.43 C208,53.67 212.55,52.67 216.47,54.58 C220.2,57 219.92,62.07 220.14,65.98 C219.98,70.49 220.64,75.8 217.41,79.45 C213.68,82.69 208.32,81.36 203.81,81.63 C203.81,72.23 203.81,62.83 203.81,53.43 Z M206.39,79.47 C209.93,79.28 215.46,80.29 216.78,75.85 C217.82,70.36 218.03,64.53 216.81,59.05 C215.28,54.83 209.91,55.83 206.39,55.59 C206.37,63.54 206.37,71.51 206.39,79.47 Z" id="Shape"></path>
                <path d="M225.43,53.43 C229.7,53.42 233.98,53.42 238.25,53.43 C238.25,53.98 238.25,55.08 238.25,55.63 C234.83,55.64 231.42,55.63 228,55.64 C228,59.1 228,62.57 228,66.04 C231.25,66.04 234.5,66.04 237.75,66.05 C237.76,66.6 237.76,67.7 237.76,68.25 C234.51,68.25 231.25,68.25 228,68.25 C228,71.97 228,75.7 228,79.43 C231.5,79.42 235,79.42 238.51,79.43 C238.51,79.98 238.51,81.08 238.51,81.63 C234.15,81.64 229.79,81.64 225.43,81.63 C225.42,72.23 225.42,62.83 225.43,53.43 Z" id="Shape"></path>
                <path d="M252.38,56.42 C254.65,52.39 260.3,52.2 264.12,53.87 C266.82,55 267.15,58.16 267.56,60.68 C266.94,60.7 265.7,60.75 265.08,60.78 C264.48,59.15 264.48,57.02 262.85,56 C260.08,54.31 255.39,54.8 254.24,58.25 C253,62.04 253.43,66.11 253.36,70.04 C253.52,72.94 253.3,76.32 255.37,78.65 C257.87,80.9 261.5,79.79 264.47,79.38 C264.5,75.94 264.49,72.5 264.49,69.06 C262.61,69.06 260.74,69.06 258.87,69.06 C258.87,68.51 258.87,67.42 258.88,66.87 C261.6,66.87 264.33,66.87 267.06,66.87 C267.06,71.62 267.06,76.36 267.06,81.11 C263.12,81.91 258.73,83.04 254.92,81.2 C251.03,78.99 250.81,73.97 250.8,70.01 C250.95,65.49 250.18,60.59 252.38,56.42 Z" id="Shape"></path>
                <path d="M273,53.43 C277.27,53.43 281.55,53.42 285.83,53.43 C285.83,53.98 285.82,55.08 285.82,55.63 C282.41,55.64 278.99,55.63 275.58,55.64 C275.57,59.1 275.57,62.57 275.57,66.04 C278.82,66.04 282.06,66.04 285.31,66.04 C285.31,66.6 285.32,67.7 285.32,68.25 C282.07,68.25 278.82,68.25 275.58,68.25 C275.57,71.97 275.57,75.7 275.58,79.42 C279.07,79.43 282.56,79.42 286.06,79.43 C286.06,79.98 286.06,81.08 286.06,81.64 C281.7,81.63 277.35,81.63 273,81.64 C273,72.23 273,62.83 273,53.43 Z" id="Shape"></path>
                <path d="M292.89,53.94 C295.65,52.6 299.18,52.48 301.92,53.93 C304.23,55.28 304.4,58.16 304.89,60.5 C304.25,60.56 302.98,60.69 302.34,60.75 C301.8,58.87 301.79,56.24 299.6,55.47 C297.59,54.84 295.04,54.85 293.43,56.37 C292.07,58.12 292.17,60.81 293.3,62.66 C296.32,65.81 300.88,67.06 303.67,70.46 C305.34,73.34 305.14,77.4 303.12,80.06 C300.46,82.73 295.98,82.66 292.74,81.22 C289.92,79.84 289.66,76.45 289.3,73.73 C289.96,73.71 291.26,73.68 291.91,73.67 C292.4,75.65 292.2,78.5 294.48,79.45 C296.7,80.34 299.88,80.37 301.4,78.2 C302.73,75.89 302.43,72.48 300.24,70.78 C297.07,68.04 292.5,66.75 290.38,62.91 C289.36,59.87 289.72,55.58 292.89,53.94 Z" id="Shape"></path>
                <path d="M309.75,53.43 C314.02,53.42 318.29,53.42 322.57,53.43 C322.57,53.98 322.57,55.08 322.57,55.63 C319.15,55.64 315.73,55.63 312.32,55.64 C312.31,59.1 312.31,62.57 312.32,66.04 C315.56,66.04 318.81,66.04 322.06,66.04 C322.06,66.6 322.06,67.7 322.06,68.25 C318.81,68.25 315.56,68.25 312.32,68.25 C312.32,71.98 312.31,75.7 312.32,79.43 C315.82,79.42 319.32,79.42 322.82,79.43 C322.82,79.98 322.83,81.08 322.83,81.63 C318.47,81.64 314.11,81.63 309.75,81.64 C309.74,72.23 309.74,62.83 309.75,53.43 Z" id="Shape"></path>
                <path d="M326.68,53.43 C327.53,53.42 328.39,53.42 329.25,53.43 C329.25,62.09 329.25,70.76 329.25,79.42 C332.36,79.42 335.46,79.42 338.57,79.43 C338.57,79.98 338.57,81.08 338.57,81.63 C334.61,81.64 330.64,81.64 326.68,81.63 C326.68,72.23 326.68,62.83 326.68,53.43 Z" id="Shape"></path>
                <path d="M341.87,53.43 C342.7,53.42 343.54,53.42 344.38,53.43 C344.38,62.09 344.38,70.76 344.38,79.42 C347.48,79.42 350.59,79.42 353.69,79.43 C353.7,79.98 353.7,81.08 353.7,81.63 C349.76,81.64 345.81,81.63 341.88,81.64 C341.87,72.23 341.87,62.83 341.87,53.43 Z" id="Shape"></path>
                <path d="M360.47,53.65 C363.13,52.66 366.37,52.54 368.92,53.93 C371.24,55.26 371.41,58.16 371.9,60.5 C371.27,60.57 369.99,60.69 369.36,60.76 C369.18,57.8 367.49,54.42 363.96,55.1 C359.59,54.54 358.06,60.51 360.78,63.16 C363.81,65.89 367.94,67.24 370.62,70.38 C372.83,73.98 372.08,80.27 367.55,81.7 C364.61,82.49 361.02,82.47 358.6,80.4 C356.7,78.72 356.71,76.01 356.35,73.71 C357,73.7 358.3,73.69 358.95,73.68 C359.41,75.64 359.21,78.42 361.41,79.41 C363.64,80.35 366.86,80.39 368.4,78.2 C369.75,75.9 369.44,72.5 367.26,70.79 C364.16,68.12 359.81,66.84 357.56,63.24 C356.14,60 356.79,55.09 360.47,53.65 Z" id="Shape"></path>
                <path d="M379.42,54.3 C382.18,52.53 386.1,52.35 388.93,54.06 C391.27,55.59 391.32,58.63 391.72,61.11 C391.09,61.12 389.84,61.13 389.22,61.14 C388.69,59.37 388.78,57.12 387.16,55.91 C384.37,53.94 379.77,55.55 379.26,59.07 C378.31,64.57 378.36,70.3 379.2,75.81 C379.6,79.18 383.67,81.05 386.59,79.49 C388.71,78.25 388.71,75.51 389.26,73.4 C389.93,73.45 391.27,73.54 391.93,73.59 C391.42,76.38 391.01,79.74 388.28,81.28 C384.51,83.25 378.66,82.13 377.16,77.75 C375.66,73.32 376.07,68.53 376.09,63.93 C376.29,60.56 376.47,56.52 379.42,54.3 Z" id="Shape"></path>
                <path d="M396.11,53.43 C396.76,53.43 398.05,53.43 398.7,53.43 C398.7,57.63 398.7,61.84 398.7,66.04 C402.34,66.04 405.98,66.04 409.62,66.04 C409.62,61.83 409.61,57.63 409.62,53.43 C410.47,53.42 411.33,53.42 412.19,53.43 C412.19,62.83 412.19,72.23 412.19,81.64 C411.33,81.63 410.47,81.63 409.62,81.63 C409.61,77.17 409.62,72.71 409.62,68.25 C405.98,68.25 402.34,68.25 398.7,68.25 C398.69,72.71 398.7,77.17 398.7,81.63 C398.05,81.63 396.76,81.63 396.11,81.63 C396.1,72.23 396.1,62.83 396.11,53.43 Z" id="Shape"></path>
                <path d="M452.24,53.43 C457.66,53.42 463.08,53.42 468.51,53.43 C468.51,53.98 468.51,55.08 468.51,55.63 C466.24,55.63 463.96,55.63 461.7,55.64 C461.69,64.31 461.71,72.97 461.69,81.64 C461.05,81.64 459.76,81.63 459.11,81.62 C459.1,72.96 459.11,64.3 459.1,55.64 C456.81,55.63 454.52,55.63 452.24,55.63 C452.24,55.08 452.24,53.98 452.24,53.43 Z" id="Shape"></path>
                <path d="M475.36,53.54 C478.07,52.66 481.37,52.52 483.85,54.14 C485.94,55.57 486.02,58.31 486.51,60.56 C485.87,60.59 484.58,60.64 483.94,60.66 C483.37,58.92 483.46,56.47 481.52,55.59 C479.2,54.68 475.61,54.78 474.44,57.38 C473.84,59.14 473.88,61.35 475.09,62.86 C478.16,65.86 482.62,67.16 485.35,70.54 C487.4,74.23 486.59,80.58 481.91,81.78 C479.1,82.44 475.8,82.43 473.43,80.59 C471.34,78.95 471.31,76.11 470.93,73.73 C471.8,73.7 472.68,73.67 473.56,73.66 C473.49,76.88 475.23,80.57 479.04,80 C483.56,80.52 485.24,74.41 482.58,71.48 C479.54,68.37 474.89,67.19 472.34,63.55 C470.62,60.21 471.38,54.86 475.36,53.54 Z" id="Shape"></path>
                <path d="M491.11,53.43 C495.09,53.42 499.07,53.42 503.06,53.43 C503.06,53.98 503.06,55.08 503.06,55.64 C499.92,55.63 496.78,55.63 493.64,55.64 C493.63,59.1 493.63,62.57 493.64,66.04 C496.54,66.04 499.46,66.04 502.38,66.05 C502.38,66.6 502.38,67.7 502.38,68.25 C499.46,68.25 496.55,68.25 493.64,68.25 C493.63,72.71 493.64,77.17 493.63,81.63 C493,81.63 491.74,81.63 491.11,81.63 C491.11,72.23 491.1,62.83 491.11,53.43 Z" id="Shape"></path>
                <path d="M510.41,53.65 C513.74,52.42 518.24,52.48 520.73,55.38 C522.81,58.08 522.79,61.69 522.95,64.94 C522.94,69.02 523.21,73.2 522.08,77.17 C520.3,83.93 508.71,83.99 506.85,77.27 C505.53,72.63 505.95,67.72 506.02,62.96 C506.16,59.52 506.86,55.21 510.41,53.65 Z M511.52,55.72 C508.62,57.36 508.73,61.17 508.53,64.06 C508.55,68.34 508.11,72.76 509.4,76.91 C511.03,81.58 519.24,80.9 519.82,75.83 C520.64,70.3 520.68,64.56 519.76,59.05 C519.15,55.32 514.52,54.16 511.52,55.72 Z" id="Shape"></path>
                <path d="M527.88,53.43 C531.85,53.6 536,52.91 539.86,54.13 C543.05,55.67 542.55,60 542.25,62.94 C542.13,65 540.29,66.05 538.7,66.94 C540.02,67.56 541.76,68.17 541.86,69.93 C542.43,73.81 542.13,77.76 542.46,81.68 C541.85,81.65 540.61,81.61 539.99,81.59 C539.61,77.91 540.1,74.13 539.25,70.52 C537.84,67 533.39,68.22 530.44,67.99 C530.44,72.54 530.44,77.08 530.44,81.63 C529.8,81.63 528.52,81.64 527.87,81.64 C527.87,72.23 527.87,62.83 527.88,53.43 Z M530.45,55.63 C530.44,59.05 530.43,62.48 530.46,65.92 C533.16,65.66 536.36,66.47 538.66,64.65 C540.3,62.32 540.54,58.5 538.59,56.29 C536.03,55.2 533.14,55.76 530.45,55.63 Z" id="Shape"></path>
                <path d="M550.77,53.66 C553.4,52.65 556.57,52.56 559.12,53.86 C561.55,55.18 561.75,58.17 562.2,60.58 C561.56,60.61 560.27,60.67 559.63,60.69 C559.08,58.99 559.18,56.7 557.43,55.71 C554.68,54.25 549.69,55.12 549.81,58.99 C549.44,66.51 560.83,66 561.94,72.95 C562.39,76 561.8,79.99 558.63,81.38 C555.69,82.56 551.99,82.55 549.3,80.74 C547.07,79.13 547,76.17 546.65,73.71 C547.3,73.7 548.61,73.68 549.27,73.66 C549.4,76.52 550.44,80.16 553.99,79.98 C558.37,81.01 560.92,75.68 558.82,72.26 C555.97,68.32 550.34,67.44 547.82,63.16 C546.47,59.92 547.12,55.09 550.77,53.66 Z" id="Shape"></path>
                <path d="M567.19,58.09 C568.32,53.22 574.45,51.78 578.56,53.66 C581.14,54.93 582.13,58.23 581.7,60.91 L579.55,61.39 C578.98,59.47 579.12,56.94 577.23,55.74 C574.8,54.34 571.05,55.18 569.96,57.92 C568.71,61.1 569.01,64.61 568.93,67.96 C569,71.02 568.79,74.21 569.94,77.12 C571.11,80.32 576.27,81.17 578.19,78.24 C579.02,76.78 579.13,75.04 579.53,73.44 C580.43,73.47 581.33,73.5 582.24,73.54 C581.74,76.17 581.44,79.3 579.04,80.98 C574.98,83.66 568.13,81.94 567.12,76.75 C566,70.64 565.96,64.19 567.19,58.09 Z" id="Shape"></path>
                <path d="M586.43,53.43 C587.06,53.43 588.32,53.43 588.95,53.43 C588.96,57.63 588.95,61.84 588.96,66.04 C592.61,66.04 596.27,66.04 599.94,66.04 C599.93,61.84 599.93,57.63 599.94,53.43 C600.58,53.43 601.86,53.43 602.51,53.43 C602.51,62.83 602.51,72.23 602.51,81.63 C601.87,81.63 600.59,81.64 599.94,81.64 C599.93,77.18 599.94,72.72 599.94,68.25 C596.27,68.25 592.61,68.25 588.96,68.25 C588.95,72.71 588.96,77.17 588.95,81.64 C588.32,81.64 587.06,81.63 586.43,81.63 C586.42,72.23 586.42,62.83 586.43,53.43 Z" id="Shape"></path>
                <path d="M621.81,53.43 C622.64,53.42 623.47,53.42 624.32,53.43 C624.3,59.96 624.33,66.49 624.32,73.02 C624.32,75.74 623.81,78.81 621.55,80.61 C617.07,83.84 608.71,82.25 608.1,75.96 C607.57,68.47 608.02,60.93 607.88,53.43 C608.5,53.43 609.75,53.43 610.38,53.43 C610.41,59.66 610.31,65.9 610.43,72.13 C610.53,74.38 610.56,76.96 612.26,78.68 C615.14,81.31 620.9,80.03 621.39,75.81 C622.26,68.4 621.6,60.88 621.81,53.43 Z" id="Shape"></path>
                <path d="M629.87,53.43 C631.15,53.42 632.43,53.42 633.74,53.43 C637.57,61.64 641.32,69.89 645.17,78.1 C645.18,69.88 645.16,61.65 645.18,53.43 C645.82,53.43 647.12,53.43 647.76,53.43 C647.76,62.84 647.77,72.25 647.75,81.66 C646.43,81.63 645.13,81.61 643.83,81.6 C640.07,73.29 636.25,65.01 632.45,56.73 C632.44,65.03 632.45,73.33 632.44,81.63 C631.58,81.63 630.72,81.63 629.87,81.64 C629.87,72.23 629.87,62.83 629.87,53.43 Z" id="Shape"></path>
                <path d="M654.49,56.58 C656.67,52.45 662.35,52.19 666.21,53.81 C668.94,54.9 669.35,58.05 669.78,60.58 C669.17,60.67 667.96,60.85 667.36,60.94 C666.72,59.1 666.62,56.61 664.58,55.72 C661.95,54.53 658.01,54.83 656.66,57.75 C655.2,61.3 655.68,65.26 655.57,69.01 C655.74,72.19 655.32,75.86 657.45,78.51 C659.9,80.96 663.68,79.78 666.7,79.38 C666.76,75.94 666.74,72.5 666.75,69.06 C664.84,69.06 662.93,69.06 661.04,69.06 C661.04,68.51 661.04,67.42 661.04,66.88 C663.8,66.87 666.55,66.87 669.32,66.88 C669.31,71.62 669.32,76.36 669.32,81.1 C665.28,81.92 660.73,83.11 656.88,81.06 C653.2,78.74 653.02,73.88 652.98,70 C653.12,65.53 652.41,60.72 654.49,56.58 Z" id="Shape"></path>
                <path d="M80.3,81.63 C80.3,72.23 80.29,62.82 80.31,53.42 C80.95,53.43 82.24,53.44 82.89,53.44 C82.9,62.1 82.89,70.76 82.9,79.43 C86.07,79.43 89.25,79.4 92.43,79.47 C92.29,79.98 91.99,81 91.85,81.5 C88.01,81.81 84.15,81.57 80.3,81.63 Z" id="Shape"></path>
                <path d="M113.18,53.43 C113.82,53.43 115.12,53.43 115.76,53.44 C115.76,62.83 115.77,72.23 115.76,81.63 C115.11,81.63 113.82,81.63 113.17,81.63 C113.17,72.23 113.17,62.83 113.18,53.43 Z" id="Shape"></path>
                <path d="M180.11,53.44 C181.4,53.43 182.69,53.42 183.98,53.42 C187.81,61.66 191.58,69.92 195.43,78.16 C195.42,69.91 195.42,61.67 195.43,53.43 C196.06,53.43 197.32,53.43 197.95,53.44 C197.96,62.83 197.96,72.23 197.95,81.63 C196.68,81.63 195.41,81.63 194.14,81.65 C190.3,73.37 186.54,65.05 182.7,56.78 C182.7,65.06 182.7,73.35 182.7,81.63 C182.05,81.63 180.76,81.63 180.11,81.63 C180.11,72.23 180.11,62.83 180.11,53.44 Z" id="Shape"></path>
                <path d="M424.31,53.45 C425.06,53.44 426.57,53.42 427.33,53.42 C430.27,62.82 433.19,72.23 436.12,81.64 C435.45,81.63 434.09,81.63 433.41,81.63 C432.66,79.16 431.91,76.7 431.16,74.25 C427.51,74.25 423.86,74.25 420.22,74.25 C418.87,76.95 419.58,82.19 415.44,81.9 C418.2,72.36 421.39,62.95 424.31,53.45 Z M425.7,56.28 C424.14,61.53 422.57,66.79 420.99,72.04 C424.14,72.04 427.3,72.04 430.46,72.04 C428.88,66.78 427.3,61.52 425.7,56.28 Z" id="Shape"></path>
                <path d="M439.24,81.63 C439.23,72.23 439.23,62.83 439.24,53.43 C443.22,53.42 447.2,53.43 451.19,53.43 L451.19,55.64 C448.04,55.63 444.9,55.63 441.77,55.64 C441.76,59.1 441.76,62.57 441.76,66.04 C444.68,66.04 447.6,66.04 450.52,66.06 C450.51,66.61 450.5,67.71 450.49,68.26 C447.58,68.25 444.67,68.25 441.77,68.26 C441.76,72.71 441.77,77.17 441.76,81.63 C441.13,81.63 439.87,81.63 439.24,81.63 Z" id="Shape"></path>
            </g>
        </g>
    </g>
</svg>